<svg width="168" height="52" viewBox="0 0 168 52" fill="none" xmlns="http://www.w3.org/2000/svg">
<path fill-rule="evenodd" clip-rule="evenodd" d="M14.5384 7.125C20.1579 8.44059 28.3313 0 28.3313 0C33.5722 3.20359 35.6828 3.28106 38.6449 1.75C38.0436 8.64249 35.1298 9.26985 29.8224 10.25V13H34.6685C35.6434 16.1779 35.0967 17.7848 33.1774 20.5H27.8342V39C21.1954 49.34 16.4621 51.6215 6.95856 52C5.62611 51.2149 4.57382 50.4471 3.47928 49.375C2.29314 50.5753 1.49928 51.1174 0 52V48.625C1.47292 46.0352 2.0831 45.3868 3.97632 43.5C7.50825 43.8492 9.47399 44.4412 12.6745 47.625C14.3768 42.5095 14.0171 33.2143 14.1656 20.5C9.6941 18.8065 7.80271 20.285 3.97632 23.375V19.625C5.30063 16.9265 6.22526 15.7119 8.0769 13.875H14.5384V7.125ZM22.6153 9.75H20.1301V38.25C19.1786 41.5373 18.2217 43.6113 16.0295 47.625C19.2162 45.1731 20.4688 42.748 22.6153 38.25V9.75Z" fill="white"/>
<path d="M37.5265 19.75C36.4257 20.6657 35.6908 21.1528 34.1715 21.875V37.5C35.7314 38.1431 36.459 38.7254 37.5265 40.125C39.3556 39.1911 40.353 38.6532 41.7514 37.5V35.875C40.1148 36.3777 39.6354 36.3291 39.2662 35.875V24.125H40.5088V21.875C39.4806 20.8704 38.8165 20.4187 37.5265 19.75Z" fill="white"/>
<path d="M37.5265 18.125C37.5265 18.125 37.8825 15.2864 37.5265 13H41.7514C40.6581 15.5153 37.5265 18.125 37.5265 18.125Z" fill="white"/>
<path d="M48.2129 15.375C49.1173 14.5998 49.6151 14.1542 50.201 13H52.0649V14.5C50.9664 15.0176 50.7074 15.6555 50.201 16.75V34.375C51.3402 35.6409 52.0062 36.1986 53.4318 35.875C53.0606 37.3581 52.0618 38.308 49.4555 40.125C48.6776 38.7066 48.1419 38.0736 46.846 37.5H43.491V35.875C44.9446 35.3392 45.5102 35.0204 45.4792 34.375L45.7277 16.75C45.4893 16.1557 45.0997 15.86 44.1123 15.375C44.449 14.4368 44.7416 14.019 45.4792 13.5C46.3162 14.4069 46.8728 14.8489 48.2129 15.375Z" fill="white"/>
<path d="M56.7868 37.5C58.3005 38.2523 59.0675 38.7841 60.1418 40.125C61.989 39.3022 62.9641 38.7786 64.3667 37.5V35.875C63.0043 36.3846 62.393 36.4718 61.8815 35.875V24.125H63.1241V21.875C62.0959 20.8704 61.4318 20.4187 60.1418 19.75C59.0713 20.8751 58.2645 21.2031 56.7868 21.875V37.5Z" fill="white"/>
<path d="M60.1418 18.125C60.1418 18.125 60.4978 15.2864 60.1418 13H64.3667C63.2735 15.5153 60.1418 18.125 60.1418 18.125Z" fill="white"/>
<path fill-rule="evenodd" clip-rule="evenodd" d="M70.3312 19.75C69.0714 21.0067 68.3139 21.484 66.8519 21.875V24.125H68.7158V34.375C67.5986 35.4107 67.1556 36.0783 66.8519 37.5H68.7158V41.125C67.8604 42.5278 67.5497 43.3424 67.4732 44.875C68.6672 43.6676 69.3027 43.1999 70.3312 43C71.66 43.5795 72.0008 44.0268 72.4436 44.875H75.1773C73.7785 43.5772 73.3762 43.0833 72.9406 42.375V38.5C73.8468 39.1872 74.3751 39.5251 75.4258 39.875C78.2094 38.0219 79.468 37.3321 81.266 36.625V24.75C79.4632 23.1401 78.8021 22.1599 77.7868 20.375C76.1509 22.1712 74.9786 23.0177 73.3134 24.125C72.5044 22.0105 72.0296 21.0652 70.3312 19.75ZM72.9406 27C74.2713 25.7442 75.1185 25.2115 76.9169 24.75V36.625C75.5167 36.0616 74.69 35.66 72.9406 34.375V27Z" fill="white"/>
<path fill-rule="evenodd" clip-rule="evenodd" d="M87.6033 19.75C86.3435 21.0067 85.5861 21.484 84.124 21.875V24.125H85.9879V34.375C84.8708 35.4107 84.4277 36.0783 84.124 37.5H85.9879V41.125C85.1325 42.5278 84.8218 43.3424 84.7453 44.875C85.9394 43.6676 86.5749 43.1999 87.6033 43C88.9321 43.5795 89.2729 44.0268 89.7157 44.875H92.4494C91.0507 43.5772 90.6484 43.0833 90.2128 42.375V38.5C91.1189 39.1872 91.6472 39.5251 92.698 39.875C95.4815 38.0219 96.7401 37.3321 98.5382 36.625V24.75C96.7353 23.1401 96.0742 22.1599 95.0589 20.375C93.423 22.1712 92.2508 23.0177 90.5855 24.125C89.7765 22.0105 89.3018 21.0652 87.6033 19.75ZM90.2128 27C91.5435 25.7442 92.3906 25.2115 94.1891 24.75V36.625C92.7888 36.0616 91.9621 35.66 90.2128 34.375V27Z" fill="white"/>
<path fill-rule="evenodd" clip-rule="evenodd" d="M141.159 4.375C140.932 3.54571 137.467 5.81395 135.692 8.375C119.897 -4.77473 109.119 18.9627 120.781 31.25C118.035 36.4883 114.558 44.8238 114.816 44.875C115.159 46.7856 115.819 47.1057 117.426 48C118.499 47.5885 118.637 47.5257 119.165 45.875C117.658 45.3065 117.709 44.7873 117.426 43.75C117.826 41.9814 118.182 41.2487 119.538 41.375C122.6 43.3783 123.744 44.4464 126 47.25C129.695 43.3136 131.677 41.7373 133.455 41.375C134.035 45.7641 134.412 46.102 135.661 47.2223L135.692 47.25C139.189 45.9285 140.3 44.6578 141.159 41.125C139.719 42.0046 138.81 42.3273 137.929 41.875V11C138.695 8.34854 139.394 6.87027 141.159 4.375ZM132.71 33.75H122.202L120.408 37.1173C123.675 38.7468 125.159 40.0697 127.988 42.375C129.817 41.0981 130.849 40.2343 132.71 38.375V33.75ZM132.71 28.5V14L125.006 28.5H132.71ZM130.722 11.5L129.106 13.625C124.848 12.7088 123.452 14.3032 121.775 18.875C125.519 16.3599 127.34 15.4719 126.869 18.875L121.775 29.125C113.92 22.1476 118.155 4.49057 130.722 11.5Z" fill="white"/>
<path d="M145.633 19.625C142.805 20.7042 142.017 21.8226 141.159 23.875C142.105 23.1559 142.715 22.9424 144.142 23.375V34.125C142.626 34.9514 142.453 35.7453 142.402 36.75C145.816 37.74 146.677 38.3941 147.745 40.125C149.249 37.6408 150.797 36.5794 152.84 34.8673C150.395 35.3426 149.169 35.6876 148.242 34.8673V24.375C148.806 23.6498 149.209 23.4215 150.106 23.375C152.149 25.3483 153.228 25.7858 155.698 22.75C153.671 21.8012 152.906 20.9414 151.721 19.25C150.718 20.8004 149.929 21.4598 148.242 22.375C147.161 21.8122 146.593 21.1863 145.633 19.625Z" fill="white"/>
<path d="M163.153 17.375C160.871 20.3493 159.652 22.1306 157.313 24.375H159.301V34.8673C159.339 37.3335 159.104 38.2616 157.81 38.375C159.797 40.5917 160.95 41.5734 163.153 42.375C165.559 41.3087 166.568 40.4353 167.751 38.375C165.678 39.1954 164.652 39.2488 163.153 38.375V25.25H168C168.032 22.9224 166.452 22.6154 163.153 22.75V17.375Z" fill="white"/>
</svg>
