<svg width="50" height="50" viewBox="0 0 100 100" fill="none" xmlns="http://www.w3.org/2000/svg">
<g filter="url(#filter0_i_333_106)">
<circle cx="50" cy="50" r="50" fill="#EDE300"/>
</g>
<mask id="path-2-inside-1_333_106" fill="white">
<path fill-rule="evenodd" clip-rule="evenodd" d="M12.6 100C5.64121 100 0 94.3587 0 87.4C0 80.4412 5.64121 74.8 12.6 74.8C12.957 74.8 13.3105 74.8148 13.66 74.8439C16.2421 67.4802 23.2544 62.2 31.5 62.2C39.7456 62.2 46.7579 67.4802 49.34 74.8439C49.6895 74.8148 50.043 74.8 50.4 74.8C57.3588 74.8 63 80.4412 63 87.4C63 94.3587 57.3588 100 50.4 100H31.5H12.6Z"/>
</mask>
<path fill-rule="evenodd" clip-rule="evenodd" d="M12.6 100C5.64121 100 0 94.3587 0 87.4C0 80.4412 5.64121 74.8 12.6 74.8C12.957 74.8 13.3105 74.8148 13.66 74.8439C16.2421 67.4802 23.2544 62.2 31.5 62.2C39.7456 62.2 46.7579 67.4802 49.34 74.8439C49.6895 74.8148 50.043 74.8 50.4 74.8C57.3588 74.8 63 80.4412 63 87.4C63 94.3587 57.3588 100 50.4 100H31.5H12.6Z" fill="#D9D9D9"/>
<path d="M13.66 74.8439L13.494 76.837L15.0355 76.9654L15.5473 75.5057L13.66 74.8439ZM49.34 74.8439L47.4527 75.5057L47.9646 76.9654L49.506 76.837L49.34 74.8439ZM12.6 98C6.74578 98 2 93.2542 2 87.4H-2C-2 95.4633 4.53664 102 12.6 102V98ZM2 87.4C2 81.5457 6.74578 76.8 12.6 76.8V72.8C4.53664 72.8 -2 79.3366 -2 87.4H2ZM12.6 76.8C12.9015 76.8 13.1996 76.8125 13.494 76.837L13.826 72.8508C13.4214 72.8171 13.0125 72.8 12.6 72.8V76.8ZM15.5473 75.5057C17.8571 68.9186 24.1301 64.2 31.5 64.2V60.2C22.3787 60.2 14.6271 66.0419 11.7726 74.1821L15.5473 75.5057ZM31.5 64.2C38.8699 64.2 45.1429 68.9186 47.4527 75.5057L51.2274 74.1821C48.3729 66.0419 40.6213 60.2 31.5 60.2V64.2ZM49.506 76.837C49.8004 76.8125 50.0985 76.8 50.4 76.8V72.8C49.9875 72.8 49.5786 72.8171 49.174 72.8508L49.506 76.837ZM50.4 76.8C56.2542 76.8 61 81.5457 61 87.4H65C65 79.3366 58.4634 72.8 50.4 72.8V76.8ZM61 87.4C61 93.2542 56.2542 98 50.4 98V102C58.4634 102 65 95.4633 65 87.4H61ZM50.4 98H31.5V102H50.4V98ZM31.5 98H12.6V102H31.5V98Z" fill="#C7C7C7" mask="url(#path-2-inside-1_333_106)"/>
<defs>
<filter id="filter0_i_333_106" x="0" y="0" width="100" height="101" filterUnits="userSpaceOnUse" color-interpolation-filters="sRGB">
<feFlood flood-opacity="0" result="BackgroundImageFix"/>
<feBlend mode="normal" in="SourceGraphic" in2="BackgroundImageFix" result="shape"/>
<feColorMatrix in="SourceAlpha" type="matrix" values="0 0 0 0 0 0 0 0 0 0 0 0 0 0 0 0 0 0 127 0" result="hardAlpha"/>
<feOffset dy="5"/>
<feGaussianBlur stdDeviation="0.5"/>
<feComposite in2="hardAlpha" operator="arithmetic" k2="-1" k3="1"/>
<feColorMatrix type="matrix" values="0 0 0 0 1 0 0 0 0 0.958716 0 0 0 0 0 0 0 0 1 0"/>
<feBlend mode="normal" in2="shape" result="effect1_innerShadow_333_106"/>
</filter>
</defs>
</svg>
