<svg width="677" height="210" viewBox="0 0 677 210" fill="none" xmlns="http://www.w3.org/2000/svg">
<path fill-rule="evenodd" clip-rule="evenodd" d="M59 29.5C81.6117 34.7623 114.5 1 114.5 1C135.588 13.8144 144.081 14.1242 156 8C153.581 35.57 141.856 38.0794 120.5 42.0002V53.0002H140C143.923 65.7114 141.723 72.1392 134 83.0002H112.5V157C85.7867 198.36 66.7406 207.486 28.5 209C23.1384 205.86 18.9043 202.789 14.5 198.5C9.7272 203.301 6.53284 205.47 0.5 209V195.5C6.42679 185.141 8.88201 182.547 16.5 175C30.7118 176.397 38.6217 178.765 51.5 191.5C58.3497 171.038 56.9021 133.857 57.5 83.0002C39.5073 76.2259 31.8967 82.1402 16.5 94.5002V79.5002C21.8288 68.7059 25.5493 63.8478 33 56.5002H59V29.5ZM91.5 40H81.5V154C77.6713 167.149 73.8208 175.445 65 191.5C77.8224 181.693 82.8628 171.992 91.5 154V40Z" fill="black"/>
<path d="M151.5 80C147.07 83.6628 144.113 85.6112 138 88.5V151C144.277 153.572 147.204 155.902 151.5 161.5C158.86 157.764 162.873 155.613 168.5 151V144.5C161.915 146.511 159.986 146.316 158.5 144.5V97.5H163.5V88.5C159.363 84.4817 156.691 82.6749 151.5 80Z" fill="black"/>
<path d="M151.5 73.5C151.5 73.5 152.932 62.1457 151.5 53.0002H168.5C164.101 63.061 151.5 73.5 151.5 73.5Z" fill="black"/>
<path d="M194.5 62.5C198.139 59.3993 200.142 57.6167 202.5 53.0002H210V59C205.58 61.0705 204.538 63.6221 202.5 68.0002V138.5C207.084 143.564 209.764 145.794 215.5 144.5C214.006 150.432 209.988 154.232 199.5 161.5C196.37 155.826 194.214 153.294 189 151H175.5V144.5C181.349 142.357 183.625 141.082 183.5 138.5L184.5 68.0002C183.541 65.623 181.973 64.4399 178 62.5C179.355 58.7473 180.532 57.0759 183.5 55C186.868 58.6276 189.108 60.3956 194.5 62.5Z" fill="black"/>
<path d="M229 151C235.091 154.009 238.177 156.136 242.5 161.5C249.933 158.209 253.856 156.115 259.5 151V144.5C254.018 146.538 251.558 146.887 249.5 144.5V97.5H254.5V88.5C250.363 84.4817 247.691 82.6749 242.5 80C238.192 84.5003 234.946 85.8123 229 88.5V151Z" fill="black"/>
<path d="M242.5 73.5C242.5 73.5 243.932 62.1457 242.5 53.0002H259.5C255.101 63.061 242.5 73.5 242.5 73.5Z" fill="black"/>
<path fill-rule="evenodd" clip-rule="evenodd" d="M283.5 80C278.431 85.027 275.383 86.9361 269.5 88.5V97.5H277V138.5C272.505 142.643 270.722 145.313 269.5 151H277V165.5C273.558 171.111 272.308 174.37 272 180.5C276.805 175.671 279.362 173.799 283.5 173C288.847 175.318 290.218 177.107 292 180.5H303C297.372 175.309 295.753 173.333 294 170.5V155C297.646 157.749 299.772 159.101 304 160.5C315.2 153.088 320.265 150.328 327.5 147.5V100C320.246 93.5602 317.585 89.6394 313.5 82.5C306.918 89.6849 302.201 93.0708 295.5 97.5C292.245 89.0422 290.334 85.2608 283.5 80ZM294 109C299.355 103.977 302.763 101.846 310 100V147.5C304.366 145.246 301.039 143.64 294 138.5V109Z" fill="black"/>
<path fill-rule="evenodd" clip-rule="evenodd" d="M353 80C347.931 85.027 344.883 86.9361 339 88.5V97.5H346.5V138.5C342.005 142.643 340.222 145.313 339 151H346.5V165.5C343.058 171.111 341.808 174.37 341.5 180.5C346.305 175.671 348.862 173.799 353 173C358.347 175.318 359.718 177.107 361.5 180.5H372.5C366.872 175.309 365.253 173.333 363.5 170.5V155C367.146 157.749 369.272 159.101 373.5 160.5C384.7 153.088 389.765 150.328 397 147.5V100C389.746 93.5602 387.085 89.6394 383 82.5C376.418 89.6849 371.701 93.0708 365 97.5C361.745 89.0422 359.834 85.2608 353 80ZM363.5 109C368.855 103.977 372.263 101.846 379.5 100V147.5C373.866 145.246 370.539 143.64 363.5 138.5V109Z" fill="black"/>
<path fill-rule="evenodd" clip-rule="evenodd" d="M568.5 18.5C567.584 15.1828 553.642 24.2558 546.5 34.5C482.945 -18.0989 439.575 76.8508 486.5 126C475.451 146.953 461.461 180.295 462.5 180.5C463.879 188.142 466.534 189.423 473 193C477.32 191.354 477.875 191.103 480 184.5C473.937 182.226 474.141 180.149 473 176C474.612 168.926 476.042 165.995 481.5 166.5C493.819 174.513 498.424 178.786 507.5 190C522.37 174.254 530.347 167.949 537.5 166.5C539.833 184.056 541.349 185.408 546.376 189.889L546.5 190C560.57 184.714 565.043 179.631 568.5 165.5C562.706 169.018 559.046 170.309 555.5 168.5V45C558.583 34.3941 561.395 28.4811 568.5 18.5ZM534.5 136H492.219L485 149.469C498.146 155.987 504.118 161.279 515.5 170.5C522.861 165.393 527.015 161.937 534.5 154.5V136ZM534.5 115V57L503.5 115H534.5ZM526.5 47L520 55.5C502.864 51.835 497.248 58.2128 490.5 76.5C505.566 66.4398 512.892 62.8875 511 76.5L490.5 117.5C458.895 89.5904 475.936 18.9623 526.5 47Z" fill="black"/>
<path d="M586.5 79.5C575.121 83.8167 571.951 88.2906 568.5 96.5C572.306 93.6237 574.758 92.7695 580.5 94.5V137.5C574.4 140.806 573.707 143.981 573.5 148C587.237 151.96 590.704 154.576 595 161.5C601.053 151.563 607.282 147.318 615.5 140.469C605.664 142.37 600.728 143.751 597 140.469V98.5C599.269 95.5991 600.892 94.6859 604.5 94.5C612.722 102.393 617.061 104.143 627 92C618.846 88.2049 615.768 84.7656 611 78C606.961 84.2017 603.789 86.8392 597 90.5C592.651 88.2489 590.365 85.7451 586.5 79.5Z" fill="black"/>
<path d="M657 70.5C647.818 82.3973 642.911 89.5224 633.5 98.5H641.5V140.469C641.653 150.334 640.705 154.046 635.5 154.5C643.493 163.367 648.135 167.294 657 170.5C666.678 166.235 670.742 162.741 675.5 154.5C667.157 157.782 663.032 157.995 657 154.5V102H676.5C676.631 92.6895 670.272 91.4614 657 92V70.5Z" fill="black"/>
<path d="M546.5 190C560.57 184.714 565.043 179.631 568.5 165.5C562.706 169.018 559.046 170.309 555.5 168.5V45C558.583 34.3941 561.395 28.4811 568.5 18.5C567.584 15.1828 553.642 24.2558 546.5 34.5C482.945 -18.0989 439.575 76.8508 486.5 126C475.451 146.953 461.461 180.295 462.5 180.5C463.879 188.142 466.534 189.423 473 193C477.32 191.354 477.875 191.103 480 184.5C473.937 182.226 474.141 180.149 473 176C474.612 168.926 476.042 165.995 481.5 166.5C493.819 174.513 498.424 178.786 507.5 190C522.37 174.254 530.347 167.949 537.5 166.5C539.833 184.056 541.349 185.408 546.376 189.889M546.5 190L546.376 189.889M546.5 190C546.458 189.963 546.417 189.926 546.376 189.889M59 29.5C81.6117 34.7623 114.5 1 114.5 1C135.588 13.8144 144.081 14.1242 156 8C153.581 35.57 141.856 38.0794 120.5 42.0002V53.0002H140C143.923 65.7114 141.723 72.1392 134 83.0002H112.5V157C85.7867 198.36 66.7406 207.486 28.5 209C23.1384 205.86 18.9043 202.789 14.5 198.5C9.7272 203.301 6.53284 205.47 0.5 209V195.5C6.42679 185.141 8.88201 182.547 16.5 175C30.7118 176.397 38.6217 178.765 51.5 191.5C58.3497 171.038 56.9021 133.857 57.5 83.0002C39.5073 76.2259 31.8967 82.1402 16.5 94.5002V79.5002C21.8288 68.7059 25.5493 63.8478 33 56.5002H59V29.5ZM81.5 40H91.5V154C82.8628 171.992 77.8224 181.693 65 191.5C73.8208 175.445 77.6713 167.149 81.5 154V40ZM151.5 73.5C151.5 73.5 152.932 62.1457 151.5 53.0002H168.5C164.101 63.061 151.5 73.5 151.5 73.5ZM151.5 80C147.07 83.6628 144.113 85.6112 138 88.5V151C144.277 153.572 147.204 155.902 151.5 161.5C158.86 157.764 162.873 155.613 168.5 151V144.5C161.915 146.511 159.986 146.316 158.5 144.5V97.5H163.5V88.5C159.363 84.4817 156.691 82.6749 151.5 80ZM194.5 62.5C198.139 59.3993 200.142 57.6167 202.5 53.0002H210V59C205.58 61.0705 204.538 63.6221 202.5 68.0002V138.5C207.084 143.564 209.764 145.794 215.5 144.5C214.006 150.432 209.988 154.232 199.5 161.5C196.37 155.826 194.214 153.294 189 151H175.5V144.5C181.349 142.357 183.625 141.082 183.5 138.5L184.5 68.0002C183.541 65.623 181.973 64.4399 178 62.5C179.355 58.7473 180.532 57.0759 183.5 55C186.868 58.6276 189.108 60.3956 194.5 62.5ZM242.5 73.5C242.5 73.5 243.932 62.1457 242.5 53.0002H259.5C255.101 63.061 242.5 73.5 242.5 73.5ZM229 151C235.091 154.009 238.177 156.136 242.5 161.5C249.933 158.209 253.856 156.115 259.5 151V144.5C254.018 146.538 251.558 146.887 249.5 144.5V97.5H254.5V88.5C250.363 84.4817 247.691 82.6749 242.5 80C238.192 84.5003 234.946 85.8123 229 88.5V151ZM283.5 80C278.431 85.027 275.383 86.9361 269.5 88.5V97.5H277V138.5C272.505 142.643 270.722 145.313 269.5 151H277V165.5C273.558 171.111 272.308 174.37 272 180.5C276.805 175.671 279.362 173.799 283.5 173C288.847 175.318 290.218 177.107 292 180.5H303C297.372 175.309 295.753 173.333 294 170.5V155C297.646 157.749 299.772 159.101 304 160.5C315.2 153.088 320.265 150.328 327.5 147.5V100C320.246 93.5602 317.585 89.6394 313.5 82.5C306.918 89.6849 302.201 93.0708 295.5 97.5C292.245 89.0422 290.334 85.2608 283.5 80ZM310 100C302.763 101.846 299.355 103.977 294 109V138.5C301.039 143.64 304.366 145.246 310 147.5V100ZM353 80C347.931 85.027 344.883 86.9361 339 88.5V97.5H346.5V138.5C342.005 142.643 340.222 145.313 339 151H346.5V165.5C343.058 171.111 341.808 174.37 341.5 180.5C346.305 175.671 348.862 173.799 353 173C358.347 175.318 359.718 177.107 361.5 180.5H372.5C366.872 175.309 365.253 173.333 363.5 170.5V155C367.146 157.749 369.272 159.101 373.5 160.5C384.7 153.088 389.765 150.328 397 147.5V100C389.746 93.5602 387.085 89.6394 383 82.5C376.418 89.6849 371.701 93.0708 365 97.5C361.745 89.0422 359.834 85.2608 353 80ZM379.5 100C372.263 101.846 368.855 103.977 363.5 109V138.5C370.539 143.64 373.866 145.246 379.5 147.5V100ZM492.219 136H534.5V154.5C527.015 161.937 522.861 165.393 515.5 170.5C504.118 161.279 498.146 155.987 485 149.469L492.219 136ZM534.5 57V115H503.5L534.5 57ZM520 55.5L526.5 47C475.936 18.9623 458.895 89.5904 490.5 117.5L511 76.5C512.892 62.8875 505.566 66.4398 490.5 76.5C497.248 58.2128 502.864 51.835 520 55.5ZM586.5 79.5C575.121 83.8167 571.951 88.2906 568.5 96.5C572.306 93.6237 574.758 92.7695 580.5 94.5V137.5C574.4 140.806 573.707 143.981 573.5 148C587.237 151.96 590.704 154.576 595 161.5C601.053 151.563 607.282 147.318 615.5 140.469C605.664 142.37 600.728 143.751 597 140.469V98.5C599.269 95.5991 600.892 94.6859 604.5 94.5C612.722 102.393 617.061 104.143 627 92C618.846 88.2049 615.768 84.7656 611 78C606.961 84.2017 603.789 86.8392 597 90.5C592.651 88.2489 590.365 85.7451 586.5 79.5ZM657 70.5C647.818 82.3973 642.911 89.5224 633.5 98.5H641.5V140.469C641.653 150.334 640.705 154.046 635.5 154.5C643.493 163.367 648.135 167.294 657 170.5C666.678 166.235 670.742 162.741 675.5 154.5C667.157 157.782 663.032 157.995 657 154.5V102H676.5C676.631 92.6895 670.272 91.4614 657 92V70.5Z" stroke="black"/>
</svg>